<mxfile host="Electron" agent="Mozilla/5.0 (Windows NT 10.0; Win64; x64) AppleWebKit/537.36 (KHTML, like Gecko) draw.io/27.0.9 Chrome/134.0.6998.205 Electron/35.4.0 Safari/537.36" version="27.0.9">
  <diagram id="DerUiuqID72TJEayxF9L" name="PÃ¡gina-1">
    <mxGraphModel dx="1388" dy="729" grid="1" gridSize="10" guides="1" tooltips="1" connect="1" arrows="1" fold="1" page="1" pageScale="1" pageWidth="827" pageHeight="1169" math="0" shadow="0">
      <root>
        <mxCell id="0" />
        <mxCell id="1" parent="0" />
        <mxCell id="jPcZTrATn-BbxK2Z6Sgq-1" value="paciente&amp;nbsp;" style="rounded=0;whiteSpace=wrap;html=1;" vertex="1" parent="1">
          <mxGeometry x="140" y="260" width="120" height="60" as="geometry" />
        </mxCell>
        <mxCell id="jPcZTrATn-BbxK2Z6Sgq-2" value="Medico&lt;div&gt;&lt;br&gt;&lt;/div&gt;" style="rounded=0;whiteSpace=wrap;html=1;" vertex="1" parent="1">
          <mxGeometry x="325" y="490" width="120" height="60" as="geometry" />
        </mxCell>
        <mxCell id="jPcZTrATn-BbxK2Z6Sgq-3" value="cita&lt;div&gt;&lt;br&gt;&lt;/div&gt;" style="rounded=0;whiteSpace=wrap;html=1;" vertex="1" parent="1">
          <mxGeometry x="510" y="260" width="120" height="60" as="geometry" />
        </mxCell>
        <mxCell id="jPcZTrATn-BbxK2Z6Sgq-6" value="" style="endArrow=none;html=1;rounded=0;entryX=0.5;entryY=0;entryDx=0;entryDy=0;exitX=0.5;exitY=1;exitDx=0;exitDy=0;" edge="1" parent="1" source="jPcZTrATn-BbxK2Z6Sgq-7" target="jPcZTrATn-BbxK2Z6Sgq-1">
          <mxGeometry width="50" height="50" relative="1" as="geometry">
            <mxPoint x="150" y="160" as="sourcePoint" />
            <mxPoint x="60" y="340" as="targetPoint" />
            <Array as="points">
              <mxPoint x="140" y="180" />
            </Array>
          </mxGeometry>
        </mxCell>
        <mxCell id="jPcZTrATn-BbxK2Z6Sgq-7" value="nombre" style="ellipse;whiteSpace=wrap;html=1;" vertex="1" parent="1">
          <mxGeometry x="30" y="50" width="80" height="40" as="geometry" />
        </mxCell>
        <mxCell id="jPcZTrATn-BbxK2Z6Sgq-9" value="fecha de nacimiento&amp;nbsp;" style="ellipse;whiteSpace=wrap;html=1;" vertex="1" parent="1">
          <mxGeometry x="30" y="180" width="80" height="40" as="geometry" />
        </mxCell>
        <mxCell id="jPcZTrATn-BbxK2Z6Sgq-42" value="" style="edgeStyle=orthogonalEdgeStyle;rounded=0;orthogonalLoop=1;jettySize=auto;html=1;" edge="1" parent="1" source="jPcZTrATn-BbxK2Z6Sgq-10" target="jPcZTrATn-BbxK2Z6Sgq-7">
          <mxGeometry relative="1" as="geometry" />
        </mxCell>
        <mxCell id="jPcZTrATn-BbxK2Z6Sgq-10" value="&lt;u&gt;cedula&lt;/u&gt;" style="ellipse;whiteSpace=wrap;html=1;" vertex="1" parent="1">
          <mxGeometry x="30" y="120" width="80" height="40" as="geometry" />
        </mxCell>
        <mxCell id="jPcZTrATn-BbxK2Z6Sgq-12" value="" style="endArrow=none;html=1;rounded=0;exitX=0.5;exitY=1;exitDx=0;exitDy=0;" edge="1" parent="1" source="jPcZTrATn-BbxK2Z6Sgq-9">
          <mxGeometry width="50" height="50" relative="1" as="geometry">
            <mxPoint x="90" y="330" as="sourcePoint" />
            <mxPoint x="140" y="280" as="targetPoint" />
            <Array as="points">
              <mxPoint x="110" y="280" />
            </Array>
          </mxGeometry>
        </mxCell>
        <mxCell id="jPcZTrATn-BbxK2Z6Sgq-14" value="" style="endArrow=none;html=1;rounded=0;exitX=0.25;exitY=0;exitDx=0;exitDy=0;" edge="1" parent="1" source="jPcZTrATn-BbxK2Z6Sgq-1">
          <mxGeometry width="50" height="50" relative="1" as="geometry">
            <mxPoint x="30" y="210" as="sourcePoint" />
            <mxPoint x="80" y="160" as="targetPoint" />
          </mxGeometry>
        </mxCell>
        <mxCell id="jPcZTrATn-BbxK2Z6Sgq-15" value="solicita" style="rhombus;whiteSpace=wrap;html=1;" vertex="1" parent="1">
          <mxGeometry x="350" y="250" width="70" height="80" as="geometry" />
        </mxCell>
        <mxCell id="jPcZTrATn-BbxK2Z6Sgq-17" value="" style="endArrow=none;html=1;rounded=0;" edge="1" parent="1">
          <mxGeometry width="50" height="50" relative="1" as="geometry">
            <mxPoint x="260" y="289.5" as="sourcePoint" />
            <mxPoint x="340" y="290" as="targetPoint" />
            <Array as="points">
              <mxPoint x="349" y="289.5" />
            </Array>
          </mxGeometry>
        </mxCell>
        <mxCell id="jPcZTrATn-BbxK2Z6Sgq-18" value="" style="endArrow=none;html=1;rounded=0;" edge="1" parent="1">
          <mxGeometry width="50" height="50" relative="1" as="geometry">
            <mxPoint x="421" y="289.5" as="sourcePoint" />
            <mxPoint x="501" y="290" as="targetPoint" />
            <Array as="points">
              <mxPoint x="510" y="289.5" />
            </Array>
          </mxGeometry>
        </mxCell>
        <mxCell id="jPcZTrATn-BbxK2Z6Sgq-19" value="1" style="text;html=1;align=center;verticalAlign=middle;whiteSpace=wrap;rounded=0;" vertex="1" parent="1">
          <mxGeometry x="260" y="260" width="60" height="30" as="geometry" />
        </mxCell>
        <mxCell id="jPcZTrATn-BbxK2Z6Sgq-20" value="M" style="text;html=1;align=center;verticalAlign=middle;whiteSpace=wrap;rounded=0;" vertex="1" parent="1">
          <mxGeometry x="450" y="260" width="60" height="30" as="geometry" />
        </mxCell>
        <mxCell id="jPcZTrATn-BbxK2Z6Sgq-21" value="asigna&amp;nbsp;" style="rhombus;whiteSpace=wrap;html=1;" vertex="1" parent="1">
          <mxGeometry x="500" y="370" width="70" height="80" as="geometry" />
        </mxCell>
        <mxCell id="jPcZTrATn-BbxK2Z6Sgq-22" value="nombre" style="ellipse;whiteSpace=wrap;html=1;" vertex="1" parent="1">
          <mxGeometry x="340" y="620" width="80" height="40" as="geometry" />
        </mxCell>
        <mxCell id="jPcZTrATn-BbxK2Z6Sgq-23" value="&lt;u&gt;cedula&lt;/u&gt;" style="ellipse;whiteSpace=wrap;html=1;" vertex="1" parent="1">
          <mxGeometry x="460" y="585" width="80" height="40" as="geometry" />
        </mxCell>
        <mxCell id="jPcZTrATn-BbxK2Z6Sgq-24" value="especialidad" style="ellipse;whiteSpace=wrap;html=1;" vertex="1" parent="1">
          <mxGeometry x="200" y="585" width="80" height="40" as="geometry" />
        </mxCell>
        <mxCell id="jPcZTrATn-BbxK2Z6Sgq-25" value="" style="endArrow=none;html=1;rounded=0;exitX=0.5;exitY=0;exitDx=0;exitDy=0;" edge="1" parent="1" source="jPcZTrATn-BbxK2Z6Sgq-24">
          <mxGeometry width="50" height="50" relative="1" as="geometry">
            <mxPoint x="275" y="570" as="sourcePoint" />
            <mxPoint x="325" y="520" as="targetPoint" />
          </mxGeometry>
        </mxCell>
        <mxCell id="jPcZTrATn-BbxK2Z6Sgq-26" value="" style="endArrow=none;html=1;rounded=0;entryX=0.5;entryY=0;entryDx=0;entryDy=0;" edge="1" parent="1" target="jPcZTrATn-BbxK2Z6Sgq-23">
          <mxGeometry width="50" height="50" relative="1" as="geometry">
            <mxPoint x="445" y="520" as="sourcePoint" />
            <mxPoint x="495" y="470" as="targetPoint" />
            <Array as="points" />
          </mxGeometry>
        </mxCell>
        <mxCell id="jPcZTrATn-BbxK2Z6Sgq-28" value="" style="endArrow=none;html=1;rounded=0;exitX=0.5;exitY=0;exitDx=0;exitDy=0;" edge="1" parent="1" source="jPcZTrATn-BbxK2Z6Sgq-22">
          <mxGeometry width="50" height="50" relative="1" as="geometry">
            <mxPoint x="340" y="600" as="sourcePoint" />
            <mxPoint x="390" y="550" as="targetPoint" />
            <Array as="points">
              <mxPoint x="390" y="580" />
            </Array>
          </mxGeometry>
        </mxCell>
        <mxCell id="jPcZTrATn-BbxK2Z6Sgq-29" value="&lt;u&gt;Numero de cita&lt;/u&gt;" style="ellipse;whiteSpace=wrap;html=1;" vertex="1" parent="1">
          <mxGeometry x="430" y="110" width="80" height="40" as="geometry" />
        </mxCell>
        <mxCell id="jPcZTrATn-BbxK2Z6Sgq-30" value="fecha" style="ellipse;whiteSpace=wrap;html=1;" vertex="1" parent="1">
          <mxGeometry x="670" y="70" width="80" height="40" as="geometry" />
        </mxCell>
        <mxCell id="jPcZTrATn-BbxK2Z6Sgq-31" value="problema_del_paciente&lt;div&gt;&lt;br&gt;&lt;/div&gt;" style="ellipse;whiteSpace=wrap;html=1;" vertex="1" parent="1">
          <mxGeometry x="800" y="110" width="130" height="60" as="geometry" />
        </mxCell>
        <mxCell id="jPcZTrATn-BbxK2Z6Sgq-32" value="" style="endArrow=none;html=1;rounded=0;" edge="1" parent="1">
          <mxGeometry width="50" height="50" relative="1" as="geometry">
            <mxPoint x="535" y="370" as="sourcePoint" />
            <mxPoint x="575" y="320" as="targetPoint" />
            <Array as="points" />
          </mxGeometry>
        </mxCell>
        <mxCell id="jPcZTrATn-BbxK2Z6Sgq-33" value="" style="endArrow=none;html=1;rounded=0;exitX=0.583;exitY=-0.05;exitDx=0;exitDy=0;exitPerimeter=0;" edge="1" parent="1" source="jPcZTrATn-BbxK2Z6Sgq-2">
          <mxGeometry width="50" height="50" relative="1" as="geometry">
            <mxPoint x="480" y="480" as="sourcePoint" />
            <mxPoint x="520" y="430" as="targetPoint" />
            <Array as="points">
              <mxPoint x="495" y="460" />
            </Array>
          </mxGeometry>
        </mxCell>
        <mxCell id="jPcZTrATn-BbxK2Z6Sgq-37" value="" style="endArrow=none;html=1;rounded=0;exitX=0.417;exitY=0;exitDx=0;exitDy=0;exitPerimeter=0;entryX=0.5;entryY=1;entryDx=0;entryDy=0;" edge="1" parent="1" source="jPcZTrATn-BbxK2Z6Sgq-3" target="jPcZTrATn-BbxK2Z6Sgq-29">
          <mxGeometry width="50" height="50" relative="1" as="geometry">
            <mxPoint x="460" y="230" as="sourcePoint" />
            <mxPoint x="510" y="180" as="targetPoint" />
          </mxGeometry>
        </mxCell>
        <mxCell id="jPcZTrATn-BbxK2Z6Sgq-38" value="" style="endArrow=none;html=1;rounded=0;entryX=0.431;entryY=0.983;entryDx=0;entryDy=0;entryPerimeter=0;" edge="1" parent="1" target="jPcZTrATn-BbxK2Z6Sgq-30">
          <mxGeometry width="50" height="50" relative="1" as="geometry">
            <mxPoint x="620" y="260" as="sourcePoint" />
            <mxPoint x="610" y="210" as="targetPoint" />
            <Array as="points">
              <mxPoint x="620" y="230" />
            </Array>
          </mxGeometry>
        </mxCell>
        <mxCell id="jPcZTrATn-BbxK2Z6Sgq-40" value="1" style="text;html=1;align=center;verticalAlign=middle;whiteSpace=wrap;rounded=0;" vertex="1" parent="1">
          <mxGeometry x="400" y="440" width="60" height="30" as="geometry" />
        </mxCell>
        <mxCell id="jPcZTrATn-BbxK2Z6Sgq-41" value="M" style="text;html=1;align=center;verticalAlign=middle;whiteSpace=wrap;rounded=0;" vertex="1" parent="1">
          <mxGeometry x="560" y="340" width="60" height="30" as="geometry" />
        </mxCell>
        <mxCell id="jPcZTrATn-BbxK2Z6Sgq-43" value="estado" style="ellipse;whiteSpace=wrap;html=1;" vertex="1" parent="1">
          <mxGeometry x="700" y="110" width="80" height="40" as="geometry" />
        </mxCell>
        <mxCell id="jPcZTrATn-BbxK2Z6Sgq-45" value="hora" style="ellipse;whiteSpace=wrap;html=1;" vertex="1" parent="1">
          <mxGeometry x="610" y="110" width="80" height="40" as="geometry" />
        </mxCell>
        <mxCell id="jPcZTrATn-BbxK2Z6Sgq-48" value="" style="endArrow=none;html=1;rounded=0;exitX=1;exitY=0;exitDx=0;exitDy=0;" edge="1" parent="1" source="jPcZTrATn-BbxK2Z6Sgq-3">
          <mxGeometry width="50" height="50" relative="1" as="geometry">
            <mxPoint x="810" y="220" as="sourcePoint" />
            <mxPoint x="860" y="170" as="targetPoint" />
          </mxGeometry>
        </mxCell>
        <mxCell id="jPcZTrATn-BbxK2Z6Sgq-49" value="" style="endArrow=none;html=1;rounded=0;exitX=0.926;exitY=0.031;exitDx=0;exitDy=0;exitPerimeter=0;" edge="1" parent="1" source="jPcZTrATn-BbxK2Z6Sgq-3">
          <mxGeometry width="50" height="50" relative="1" as="geometry">
            <mxPoint x="680" y="200" as="sourcePoint" />
            <mxPoint x="730" y="150" as="targetPoint" />
          </mxGeometry>
        </mxCell>
        <mxCell id="jPcZTrATn-BbxK2Z6Sgq-50" value="" style="endArrow=none;html=1;rounded=0;" edge="1" parent="1" source="jPcZTrATn-BbxK2Z6Sgq-3">
          <mxGeometry width="50" height="50" relative="1" as="geometry">
            <mxPoint x="600" y="200" as="sourcePoint" />
            <mxPoint x="650" y="150" as="targetPoint" />
          </mxGeometry>
        </mxCell>
      </root>
    </mxGraphModel>
  </diagram>
</mxfile>
